Coordinates
version=1
nRows=9
nColumns=36
inDegrees=yes

Units are S.I. units (second, meters, Newtons, ...)
If the header above contains a line with 'inDegrees', this indicates whether rotational values are in degrees (yes) or radians (no).

endheader
time	pelvis_tilt	pelvis_list	pelvis_rotation	pelvis_tx	pelvis_ty	pelvis_tz	hip_flexion_r	hip_adduction_r	hip_rotation_r	knee_angle_r	knee_angle_r_beta	ankle_angle_r	subtalar_angle_r	mtp_angle_r	hip_flexion_l	hip_adduction_l	hip_rotation_l	knee_angle_l	knee_angle_l_beta	ankle_angle_l	subtalar_angle_l	mtp_angle_l	lumbar_extension	lumbar_bending	lumbar_rotation	arm_flex_r	arm_add_r	arm_rot_r	elbow_flex_r	pro_sup_r	arm_flex_l	arm_add_l	arm_rot_l	elbow_flex_l	pro_sup_l
      1.02000000	      1.74057390	      3.04976010	      2.95521737	      1.14641519	      1.03688947	     -0.32160794	     24.19687495	     -4.01402215	    -10.65150480	     16.57087208	      0.28921628	     -7.34190049	    -12.55984205	     -6.98771087	    -13.91390733	      6.00022969	     -0.69226660	      2.72200169	      0.04750789	      9.75965052	     11.73875776	     -6.98771087	    -13.52089830	     -1.66682763	     -5.84070125	     -3.62335617	     -7.17952661	    -17.37383962	     34.01499129	    108.69253762	     18.25154413	     -9.72827190	      7.58613111	     51.69814268	    109.15377511
      1.03000000	      1.03351244	      3.37972928	      3.11095797	      1.15929545	      1.03369685	     -0.32152345	     23.67203616	     -3.98915368	    -10.52351269	     10.81438502	      0.18874663	     -6.92951153	    -11.00765418	     -6.99321656	    -14.14191513	      6.30223131	     -0.71313281	      2.43536857	      0.04250520	      9.88003998	     12.02241223	     -6.99321656	    -12.67034065	     -1.95357018	     -6.05258171	     -3.87685062	     -7.19276166	    -17.55976711	     33.77235008	    108.57758829	     18.50388618	     -9.86013689	      7.89104648	     52.47856585	    109.14251270
      1.04000000	      0.99788801	      3.57553571	      3.25591985	      1.17264735	      1.03126920	     -0.32148194	     22.35551690	     -3.86442438	    -10.89923911	      5.37668844	      0.09384092	     -6.16065145	     -8.48511313	     -7.01184876	    -15.13372102	      6.38948416	     -1.26296966	      2.09941354	      0.03664168	     10.31555039	     13.23769235	     -7.01184876	    -12.59075529	     -2.00861524	     -6.26238958	     -3.99828728	     -7.25167154	    -17.83179890	     33.55531893	    108.56682168	     18.70185077	     -9.95629547	      8.03928243	     53.54408269	    109.15872993
      1.05000000	      0.32058476	      4.02378942	      3.40244665	      1.18559889	      1.02766529	     -0.32139005	     22.22639263	     -4.11474111	    -10.61887258	      1.40383576	      0.02450156	     -5.37057764	     -6.91942056	     -7.01578027	    -15.26548109	      6.80615945	     -1.21922510	      2.09030589	      0.03648272	     10.48026153	     13.46492004	     -7.01578027	    -11.80437680	     -2.40934069	     -6.34768589	     -4.28052754	     -7.27343843	    -18.01385329	     33.34201977	    108.54443129	     18.92041444	    -10.01066563	      8.27837318	     54.32451262	    109.23971090
      1.06000000	     -0.20397408	      4.59950841	      3.46851554	      1.19826814	      1.02409048	     -0.32167791	     23.05535831	     -4.79335267	    -12.26939068	      0.40227279	      0.00702098	     -1.58326069	     -1.77339888	     -7.03209669	    -15.48174343	      7.39259724	     -1.37143742	      2.21609878	      0.03867822	     10.78518665	     13.86625348	     -7.03209669	    -11.28690713	     -2.89842111	     -6.48165906	     -4.35241802	     -7.26319230	    -18.50570042	     33.16421059	    108.59646187	     19.01296758	    -10.11062496	      8.47981449	     55.42852418	    109.36645088
      1.07000000	     -0.93376368	      5.12922458	      3.44862111	      1.21081301	      1.02023867	     -0.32150806	     24.21903401	     -5.35594875	    -12.13889922	      0.24955476	      0.00435555	      0.59112482	     -0.21561303	     -7.03789753	    -15.40832363	      7.94326243	     -1.16806133	      2.46056342	      0.04294493	     10.97773121	     13.85140531	     -7.03789753	    -10.54322624	     -3.38567071	     -6.38783426	     -4.53308265	     -7.30237712	    -18.70887984	     33.06689564	    108.59541401	     19.14162049	    -10.16892151	      8.75542116	     56.31950549	    109.46931928
      1.08000000	     -1.18894369	      5.24809419	      3.62584082	      1.22386179	      1.01745658	     -0.32153334	     24.55737597	     -5.54158021	    -12.27458835	      0.24083174	      0.00420331	      2.43796037	      1.85977471	     -7.05208415	    -15.76430640	      7.94208278	     -0.86158974	      2.86096005	      0.04993317	     11.09691112	     13.65057443	     -7.05208415	    -10.32744350	     -3.31704842	     -6.50883854	     -4.55207677	     -7.36916493	    -19.08166901	     32.93476951	    108.63726054	     19.19302921	    -10.14554997	      8.85599814	     57.17535889	    109.58328142
      1.09000000	     -1.23196654	      5.09643251	      3.71671300	      1.23720769	      1.01509083	     -0.32106004	     24.39180349	     -5.31618237	    -10.76678121	      0.29061904	      0.00507226	      2.82113283	      1.10616593	     -7.05840170	    -16.28054360	      7.60181335	     -0.61031022	      3.37817102	      0.05896021	     11.35822404	     13.52460329	     -7.05840170	    -10.33453262	     -2.95462359	     -6.45824011	     -4.57140571	     -7.51074209	    -19.22715140	     32.81795735	    108.62936641	     19.24793668	    -10.07514616	      9.03514820	     57.95942067	    109.67061958
      1.10000000	     -1.13994444	      4.68135280	      3.75291372	      1.25086321	      1.01308955	     -0.32016017	     23.91271147	     -4.71513464	     -8.19447704	      0.44947547	      0.00784483	      1.31405363	     -2.29814392	     -7.07364509	    -16.82957808	      6.92754070	     -0.57095999	      4.07255068	      0.07107942	     11.57621146	     13.66608790	     -7.07364509	    -10.47323447	     -2.29987862	     -6.41299707	     -4.51326222	     -7.64961386	    -19.40798970	     32.71931193	    108.66413746	     19.09706269	     -9.99846138	      8.96595906	     58.85468094	    109.79101974
